<svg width="571" height="580" viewBox="0 0 571 580" fill="none" xmlns="http://www.w3.org/2000/svg">
<circle cx="288" cy="297" r="282.5" fill="#BBBBBB" stroke="black"/>
<circle cx="283" cy="283" r="282.5" fill="#E5E5E5" stroke="black"/>
<g filter="url(#filter0_i)">
<circle cx="283" cy="283" r="271" fill="url(#paint0_radial)"/>
</g>
<circle cx="283" cy="283" r="270.5" stroke="black"/>
<g filter="url(#filter1_d)">
<path d="M157.475 319.843L179.008 250.544H195.927L158.757 357.27C153.003 372.651 143.86 380.341 131.328 380.341L128.337 380.085L122.441 378.974V366.157L126.713 366.499C132.068 366.499 136.227 365.416 139.189 363.251C142.208 361.087 144.686 357.128 146.623 351.374L150.126 341.975L117.143 250.544H134.404L157.475 319.843ZM212.59 343V218.586H247.709C258.533 218.586 268.103 220.979 276.42 225.764C284.737 230.549 291.146 237.356 295.646 246.186C300.204 255.016 302.511 265.156 302.568 276.606V284.553C302.568 296.288 300.289 306.57 295.732 315.4C291.232 324.23 284.766 331.009 276.335 335.737C267.961 340.465 258.191 342.886 247.026 343H212.59ZM228.996 232.087V329.584H246.257C258.903 329.584 268.73 325.654 275.737 317.792C282.801 309.931 286.333 298.737 286.333 284.211V276.948C286.333 262.82 283 251.854 276.335 244.05C269.727 236.188 260.327 232.201 248.137 232.087H228.996ZM382.036 343C381.124 341.177 380.384 337.93 379.814 333.259C372.465 340.892 363.693 344.709 353.496 344.709C344.381 344.709 336.89 342.146 331.022 337.019C325.212 331.835 322.307 325.284 322.307 317.365C322.307 307.738 325.952 300.275 333.244 294.978C340.593 289.623 350.904 286.945 364.177 286.945H379.558V279.682C379.558 274.156 377.906 269.77 374.602 266.523C371.298 263.219 366.427 261.567 359.99 261.567C354.35 261.567 349.622 262.991 345.805 265.839C341.988 268.688 340.08 272.134 340.08 276.179H324.187C324.187 271.564 325.81 267.121 329.057 262.849C332.361 258.519 336.805 255.101 342.387 252.595C348.027 250.088 354.208 248.835 360.93 248.835C371.582 248.835 379.928 251.512 385.966 256.867C392.005 262.165 395.138 269.485 395.366 278.828V321.381C395.366 329.869 396.448 336.62 398.613 341.633V343H382.036ZM355.803 330.952C360.759 330.952 365.458 329.67 369.902 327.106C374.345 324.543 377.564 321.21 379.558 317.109V298.139H367.167C347.799 298.139 338.115 303.807 338.115 315.144C338.115 320.1 339.767 323.973 343.071 326.765C346.375 329.556 350.619 330.952 355.803 330.952ZM437.321 343H421.513V250.544H437.321V343ZM420.231 226.02C420.231 223.457 421 221.292 422.539 219.526C424.134 217.76 426.469 216.877 429.545 216.877C432.622 216.877 434.957 217.76 436.552 219.526C438.147 221.292 438.945 223.457 438.945 226.02C438.945 228.583 438.147 230.72 436.552 232.429C434.957 234.138 432.622 234.992 429.545 234.992C426.469 234.992 424.134 234.138 422.539 232.429C421 230.72 420.231 228.583 420.231 226.02Z" fill="#E5E5E5"/>
</g>
<defs>
<filter id="filter0_i" x="12" y="12" width="542" height="545" filterUnits="userSpaceOnUse" color-interpolation-filters="sRGB">
<feFlood flood-opacity="0" result="BackgroundImageFix"/>
<feBlend mode="normal" in="SourceGraphic" in2="BackgroundImageFix" result="shape"/>
<feColorMatrix in="SourceAlpha" type="matrix" values="0 0 0 0 0 0 0 0 0 0 0 0 0 0 0 0 0 0 127 0" result="hardAlpha"/>
<feOffset dy="3"/>
<feGaussianBlur stdDeviation="2"/>
<feComposite in2="hardAlpha" operator="arithmetic" k2="-1" k3="1"/>
<feColorMatrix type="matrix" values="0 0 0 0 0 0 0 0 0 0 0 0 0 0 0 0 0 0 0.25 0"/>
<feBlend mode="normal" in2="shape" result="effect1_innerShadow"/>
</filter>
<filter id="filter1_d" x="107.143" y="211.877" width="341.802" height="183.464" filterUnits="userSpaceOnUse" color-interpolation-filters="sRGB">
<feFlood flood-opacity="0" result="BackgroundImageFix"/>
<feColorMatrix in="SourceAlpha" type="matrix" values="0 0 0 0 0 0 0 0 0 0 0 0 0 0 0 0 0 0 127 0"/>
<feOffset dy="5"/>
<feGaussianBlur stdDeviation="5"/>
<feColorMatrix type="matrix" values="0 0 0 0 0.6 0 0 0 0 0.6 0 0 0 0 0.6 0 0 0 1 0"/>
<feBlend mode="normal" in2="BackgroundImageFix" result="effect1_dropShadow"/>
<feBlend mode="normal" in="SourceGraphic" in2="effect1_dropShadow" result="shape"/>
</filter>
<radialGradient id="paint0_radial" cx="0" cy="0" r="1" gradientUnits="userSpaceOnUse" gradientTransform="translate(198.5 210.5) rotate(55.7934) scale(415.349 391.03)">
<stop stop-color="#E5E5E5"/>
<stop offset="1" stop-color="white"/>
</radialGradient>
</defs>
</svg>
