<svg width="96" height="24" fill="none" xmlns="http://www.w3.org/2000/svg"><path d="M10.632 10.408l2.28-5.067 2.28-4.69c.114-.229.23-.389.345-.48.138-.114.333-.171.587-.171h4.386c.323 0 .484.068.484.205a.654.654 0 01-.07.411l-7.702 14.55v8.15c0 .25-.046.433-.138.547-.092.091-.3.137-.622.137H8.697c-.483 0-.725-.228-.725-.685v-8.08L.062.65C-.007.536-.018.4.028.24.097.08.258 0 .51 0h4.352c.323 0 .542.057.657.171.138.114.264.308.38.582l2.314 4.76 2.21 4.895h.208zM29.63 23.281c0 .297-.058.49-.174.582-.092.091-.31.137-.656.137H25.14c-.276 0-.484-.046-.622-.137-.115-.114-.172-.308-.172-.582V.753c0-.274.057-.456.172-.548.138-.114.346-.17.622-.17H28.8c.346 0 .564.045.656.136.116.091.173.285.173.582v22.528zM52.568 23.213c0 .273-.046.479-.138.616-.092.114-.276.171-.553.171H41.653c-1.29 0-2.349-.183-3.178-.548-.806-.365-1.45-.844-1.934-1.438a5.06 5.06 0 01-1.002-2.02 9.616 9.616 0 01-.276-2.294V6.334c0-.822.115-1.61.345-2.363a5.89 5.89 0 011.071-2.02c.507-.593 1.163-1.06 1.969-1.403C39.454.183 40.444 0 41.618 0h9.914c.276 0 .449.057.518.171.092.114.138.331.138.65v2.91c0 .298-.046.503-.138.617-.092.091-.265.137-.518.137h-8.774c-.898 0-1.496.205-1.796.616-.3.411-.449.913-.449 1.507v2.636h9.913c.277 0 .45.057.518.171.093.114.139.331.139.65v2.671c0 .274-.046.48-.139.616-.069.114-.241.171-.518.171h-9.913v3.904c0 .798.184 1.346.553 1.643.391.274.956.41 1.692.41h9.12c.298 0 .483.058.552.172.092.091.138.308.138.65v2.91zM62.836 24c-1.29 0-2.348-.183-3.177-.548-.806-.365-1.451-.844-1.935-1.438a5.06 5.06 0 01-1.001-2.02 9.621 9.621 0 01-.277-2.294V.72c0-.274.058-.457.173-.548.138-.114.345-.171.622-.171h3.661c.346 0 .564.046.656.137.115.091.173.285.173.582v16.605c0 .867.207 1.45.622 1.746.437.297 1.002.445 1.692.445h8.774c.253 0 .426.046.518.137.092.068.138.262.138.582v3.047c0 .48-.219.719-.656.719h-9.983zM78.488 24c-.83 0-1.382-.16-1.658-.48-.277-.342-.415-.878-.415-1.608V2.122c0-.73.138-1.266.415-1.608C77.106.17 77.659 0 78.488 0h6.459c2.026 0 3.742.32 5.147.959 1.404.639 2.544 1.495 3.42 2.567.874 1.073 1.507 2.34 1.899 3.8.391 1.439.587 2.957.587 4.554 0 1.575-.173 3.093-.518 4.554-.346 1.46-.933 2.75-1.762 3.868-.829 1.119-1.934 2.02-3.316 2.705-1.358.662-3.05.993-5.077.993h-6.84zm12.09-12.12c0-1.05-.093-2.02-.277-2.91-.184-.89-.518-1.655-1.002-2.294-.46-.662-1.094-1.175-1.9-1.54-.806-.389-1.819-.583-3.04-.583h-2.694v14.86h2.798c1.198 0 2.188-.183 2.97-.549.807-.387 1.44-.913 1.9-1.574.461-.662.784-1.45.968-2.363.184-.936.276-1.951.276-3.047z" fill="#000"/></svg>