<svg width="105" height="32" viewBox="0 0 105 32" fill="none" xmlns="http://www.w3.org/2000/svg">
<path d="M28.0736 3.92512C26.2249 2.07513 21.28 3.88137 16 8.00384C10.7187 3.88128 5.77378 2.07648 3.92642 3.92512C2.07516 5.7751 3.88267 10.7187 8.00386 16C3.88258 21.2813 2.07522 26.2262 3.92642 28.0749C5.77516 29.9249 10.7213 28.1174 16.0013 23.9962C21.2813 28.1187 26.2263 29.9248 28.0749 28.0749C29.9249 26.2249 28.1174 21.28 23.9949 16C28.1187 10.7187 29.9248 5.77504 28.0736 3.92512ZM25.9886 5.33136C26.3799 5.33136 26.5449 5.41261 26.5661 5.43386C26.6736 5.54136 26.9511 6.75136 25.6149 9.53626C24.8899 11.0475 23.8636 12.6675 22.6136 14.3075C21.8761 13.4549 21.0849 12.6025 20.2411 11.7587C19.3986 10.9175 18.5461 10.125 17.6949 9.38874C21.2085 6.71747 24.2962 5.33114 25.9886 5.33114V5.33136ZM21.2488 15.9989C20.4675 16.9164 19.63 17.8339 18.7313 18.7326C17.815 19.6501 16.9 20.4864 16.0013 21.2489C15.0838 20.4689 14.1663 19.6314 13.2688 18.7326C12.3513 17.8151 11.515 16.9001 10.7513 16.0027C11.5313 15.0839 12.3688 14.1676 13.2663 13.2701C14.185 12.3526 15.1001 11.5151 15.9976 10.7526C16.9163 11.5339 17.8338 12.3714 18.7313 13.2701C19.6501 14.1864 20.4863 15.1002 21.2488 15.9989H21.2488ZM5.33263 6.01136C5.33263 5.62134 5.41388 5.4551 5.43388 5.43385C5.54013 5.3276 6.75139 5.04886 9.53628 6.38636C11.0475 7.11136 12.6663 8.13763 14.3075 9.38636C13.455 10.1239 12.6012 10.9151 11.7575 11.7589C10.915 12.6014 10.1237 13.4539 9.38873 14.3051C6.71747 10.7915 5.33241 7.70256 5.33241 6.01136H5.33263ZM6.01138 26.669C5.62012 26.669 5.45388 26.5865 5.43388 26.5677C5.32638 26.4602 5.04889 25.2502 6.38639 22.4653C7.11138 20.9553 8.13641 19.3353 9.38639 17.6941C10.1239 18.5466 10.9151 19.3991 11.7589 20.2441C12.6014 21.0879 13.4527 21.8779 14.3051 22.6141C10.7915 25.2828 7.70258 26.6691 6.01138 26.6691V26.669ZM26.669 25.989C26.669 26.379 26.5865 26.5452 26.5665 26.5652C26.459 26.6727 25.249 26.9515 22.4641 25.6139C20.9541 24.889 19.3341 23.8627 17.6942 22.6127C18.5454 21.8752 19.3992 21.084 20.2417 20.2414C21.0854 19.3989 21.8767 18.5464 22.6129 17.6939C25.2829 21.2088 26.6692 24.2965 26.6692 25.989L26.669 25.989Z" fill="black"/>
<path d="M50.872 7.2L47.776 13.824L44.2 7.2H39.688L45.64 17.664L42.52 24H46.84L55.168 7.2H50.872ZM56.3273 24H60.2153V7.2H56.3273V24ZM63.4758 24H73.7478V20.88H67.3638V17.184H73.7478V14.136H67.3638V10.32H73.7478V7.2H63.4758V24ZM76.8117 24H86.9397V20.544H80.6997V7.2H76.8117V24ZM89.4914 24H95.8274C101.251 24 104.395 20.136 104.395 15.6C104.395 11.064 101.227 7.2 95.8274 7.2H89.4914V24ZM93.3794 20.736V10.464H95.4674C98.7794 10.464 100.387 12.936 100.387 15.6C100.387 18.264 98.7794 20.736 95.4674 20.736H93.3794Z" fill="black"/>
</svg>
