<svg version="1.1" id="elp-badge" class="badge"
		xmlns="http://www.w3.org/2000/svg"
		xmlns:xlink="http://www.w3.org/1999/xlink" x="0px" y="0px"
		viewBox="0 0 289.1 289.1" enable-background="new 0 0 289.1 289.1"
		xml:space="preserve">
		<defs>
			<filter id="dropshadow">
				<feGaussianBlur in="SourceAlpha" stdDeviation="0"/>
				<feOffset dx="-5" dy="5" result="offsetblur"/>
				<feMerge>
					<feMergeNode/>
					<feMergeNode in="SourceGraphic"/>
				</feMerge>
			</filter>
			<style type="text/css"><![CDATA[
			.badge-header, .badge-footer {
				letter-spacing: 2px;
			}
			.badge-percentage {
				-moz-text-shadow:    -5px 5px 0 #555;
				-webkit-text-shadow: -5px 5px 0 #555;
				text-shadow:         -5px 5px 0 #555;
			}
			]]>
			</style>
		</defs>
		<circle class="circle" fill="#28BDEE" cx="144.5" cy="144.5" r="144.5"/>
		<path id="SVGID_x5F_2_x5F_" fill="none" d="M31.1,129c10.4-62.1,69.2-104,131.4-93.6s104,69.2,93.6,131.4
				c-10.4,62.1-69.2,104-131.4,93.6C62.5,249.9,20.6,191.1,31.1,129z"/>
		<text text-anchor="middle">
			<textPath xlink:href="#SVGID_x5F_2_x5F_" startOffset="160">
				<tspan class="badge-header" fill="#FFFFFF" font-family="'Open Sans'" font-size="25">yDai-2020-05-31</tspan>
			</textPath>
		</text>
		<text class="badge-percentage" transform="matrix(0.9862 0.1656 -0.1656 0.9862 135 200)" fill="#FFFFFF" font-family="'Open Sans'" font-weight="bold" font-size="75" text-anchor="middle">2.34</text>
		<!-- <text transform="matrix(0.9862 0.1656 -0.1656 0.9862 245.5249 190)" fill="#FFFFFF" font-family="'Open Sans'" font-weight="400" font-size="60" text-anchor="middle">%</text> -->
		<path id="SVGID_x5F_1_x5F_" fill="none" d="M263.9,172.8c11-65.5-33.2-127.6-98.7-138.6S37.5,67.4,26.5,133s33.2,127.6,98.7,138.6
																							 C190.8,282.6,252.9,238.4,263.9,172.8z"/>
		<text text-anchor="middle">
			<textPath xlink:href="#SVGID_x5F_1_x5F_" startOffset="580">
				<tspan class="badge-footer" fill="#FFFFFF" font-family="'Open Sans'" font-size="24.4497">in MISSISSIPPI</tspan>
			</textPath>
		</text>
	</svg>
