<svg width="510" height="295" viewBox="0 0 510 295" fill="none" xmlns="http://www.w3.org/2000/svg">
<path d="M189.642 166.2C185.242 166.2 181.509 164.667 178.442 161.6C175.376 158.533 173.842 154.8 173.842 150.4C173.842 146 175.376 142.267 178.442 139.2C181.509 136 185.242 134.4 189.642 134.4C194.042 134.4 197.776 136 200.842 139.2C204.042 142.267 205.642 146 205.642 150.4C205.642 154.8 204.042 158.533 200.842 161.6C197.776 164.667 194.042 166.2 189.642 166.2ZM176.042 278.2C169.642 278.2 164.442 276.2 160.442 272.2C156.576 268.2 154.642 262.2 154.642 254.2C154.642 250.867 155.176 246.533 156.242 241.2L169.842 177H198.642L184.242 245C183.709 247 183.442 249.133 183.442 251.4C183.442 254.067 184.042 256 185.242 257.2C186.576 258.267 188.709 258.8 191.642 258.8C195.509 258.8 199.109 257.2 202.442 254C205.776 250.667 208.176 246.4 209.642 241.2H218.042C213.109 255.6 206.776 265.4 199.042 270.6C191.309 275.667 183.642 278.2 176.042 278.2Z" fill="#333333"/>
<path d="M238.163 278.2C228.296 278.2 220.629 275.667 215.163 270.6C209.696 265.4 206.963 257.333 206.963 246.4C206.963 237.2 208.763 227.067 212.363 216C215.963 204.933 221.829 195.4 229.963 187.4C238.096 179.267 248.429 175.2 260.963 175.2C275.629 175.2 282.963 181.6 282.963 194.4C282.963 201.867 280.829 208.733 276.563 215C272.296 221.267 266.629 226.333 259.563 230.2C252.496 233.933 244.963 236.067 236.963 236.6C236.696 240.6 236.563 243.267 236.563 244.6C236.563 251.133 237.696 255.6 239.963 258C242.229 260.267 245.896 261.4 250.963 261.4C258.163 261.4 264.296 259.733 269.363 256.4C274.563 253.067 280.229 248 286.363 241.2H293.163C278.363 265.867 260.029 278.2 238.163 278.2ZM238.563 227C243.496 226.733 248.163 225 252.563 221.8C257.096 218.6 260.696 214.533 263.363 209.6C266.163 204.667 267.563 199.467 267.563 194C267.563 188.533 265.896 185.8 262.563 185.8C257.763 185.8 253.029 190 248.363 198.4C243.829 206.8 240.563 216.333 238.563 227Z" fill="#333333"/>
<path d="M306.12 278.2C299.72 278.2 294.52 276.2 290.52 272.2C286.654 268.2 284.72 262.2 284.72 254.2C284.72 250.867 285.254 246.533 286.32 241.2L307.72 141L337.32 137L314.32 245C313.787 247 313.52 249.133 313.52 251.4C313.52 254.067 314.12 256 315.32 257.2C316.654 258.267 318.787 258.8 321.72 258.8C325.587 258.8 329.187 257.2 332.52 254C335.854 250.667 338.254 246.4 339.72 241.2H348.12C343.187 255.6 336.854 265.4 329.12 270.6C321.387 275.667 313.72 278.2 306.12 278.2Z" fill="#333333"/>
<path d="M363.641 278.2C356.041 278.2 349.707 275.6 344.641 270.4C339.574 265.2 337.041 257.067 337.041 246C337.041 236.133 338.974 225.8 342.841 215C346.841 204.067 352.707 194.867 360.441 187.4C368.307 179.8 377.641 176 388.441 176C393.907 176 397.974 176.933 400.641 178.8C403.307 180.667 404.641 183.133 404.641 186.2V187L414.441 141L444.041 137L421.041 245C420.507 247 420.241 248.933 420.241 250.8C420.241 256.133 422.974 258.8 428.441 258.8C430.841 258.8 432.974 258.4 434.841 257.6C434.307 264.267 431.907 269.4 427.641 273C423.507 276.467 418.574 278.2 412.841 278.2C407.507 278.2 402.974 276.867 399.241 274.2C395.641 271.4 393.241 267.2 392.041 261.6C384.041 272.667 374.574 278.2 363.641 278.2ZM376.641 258.8C379.574 258.8 382.507 257.533 385.441 255C388.507 252.467 390.774 248.933 392.241 244.4L393.041 241.2L402.841 195.4C401.641 190.733 398.907 188.4 394.641 188.4C389.307 188.4 384.507 191.533 380.241 197.8C375.974 203.933 372.641 211.4 370.241 220.2C367.841 228.867 366.641 236.533 366.641 243.2C366.641 249.867 367.574 254.133 369.441 256C371.441 257.867 373.841 258.8 376.641 258.8Z" fill="#333333"/>
<path d="M189.642 166.2C185.242 166.2 181.509 164.667 178.442 161.6C175.375 158.533 173.842 154.8 173.842 150.4C173.842 146 175.375 142.267 178.442 139.2C181.509 136 185.242 134.4 189.642 134.4C194.042 134.4 197.775 136 200.842 139.2C204.042 142.267 205.642 146 205.642 150.4C205.642 154.8 204.042 158.533 200.842 161.6C197.775 164.667 194.042 166.2 189.642 166.2Z" fill="#FF0000"/>
<g style="mix-blend-mode:overlay">
<path fill-rule="evenodd" clip-rule="evenodd" d="M42.3058 37L38.4196 36.3148C38.3794 36.5432 38.3396 36.7716 38.3004 37H42.3058ZM237.542 38H259.171C261.251 38.2309 263.334 38.5294 265.42 38.8972L266.003 39H230.692C232.961 38.5882 235.245 38.2542 237.542 38ZM225.857 40H271.674L277.346 41H221.91C223.219 40.6406 224.535 40.3071 225.857 40ZM64.991 41L59.3197 40H37.8165C37.7662 40.3335 37.717 40.6668 37.6689 41H64.991ZM37.5282 42H70.647C72.2535 42.2954 73.8449 42.629 75.4205 43H37.3943C37.4378 42.6668 37.4824 42.3335 37.5282 42ZM37.2672 44H79.3099C80.4358 44.3141 81.5531 44.6476 82.6617 45H37.147C37.1859 44.6668 37.226 44.3335 37.2672 44ZM37.0335 46C36.9968 46.3335 36.9613 46.6668 36.9269 47H88.3424C87.4482 46.654 86.5477 46.3206 85.641 46H37.0335ZM36.734 49C36.7639 48.6668 36.7949 48.3335 36.8271 48H90.8257C91.5992 48.3238 92.3679 48.6572 93.1316 49H36.734ZM36.6478 50C36.6202 50.3335 36.5937 50.6669 36.5684 51H97.3212C96.6482 50.6592 95.9709 50.3258 95.2895 50H36.6478ZM36.3188 55C36.335 54.6669 36.3524 54.3335 36.371 54H102.812C103.37 54.328 103.925 54.6614 104.477 55H36.3188ZM192.627 54C192.104 54.3289 191.584 54.6622 191.065 55H294.683C294.767 54.6672 294.849 54.3339 294.931 54H192.627ZM295.171 53C295.25 52.6672 295.328 52.3339 295.404 52H195.925C195.363 52.3283 194.803 52.6616 194.245 53H295.171ZM101.07 53C100.465 52.6605 99.8563 52.3271 99.2438 52H36.4958C36.4727 52.3335 36.4508 52.6669 36.43 53H101.07ZM36.2734 56C36.2594 56.3336 36.2465 56.6669 36.2348 57H107.607C107.098 56.6621 106.587 56.3287 106.073 56H36.2734ZM36.1781 59C36.1853 58.6669 36.1936 58.3336 36.2031 58H109.083C109.56 58.3293 110.034 58.6626 110.505 59H36.1781ZM36.16 60C36.1551 60.3336 36.1514 60.6669 36.1488 61H113.208C112.767 60.6631 112.325 60.3297 111.879 60H36.16ZM36.1468 63C36.1448 62.6669 36.144 62.3336 36.1444 62H114.493C114.911 62.3301 115.327 62.6634 115.739 63H36.1468ZM36.1561 64C36.1604 64.3336 36.1658 64.6669 36.1723 65H118.121C117.732 64.6637 117.341 64.3304 116.948 64H36.1561ZM36.2255 67C36.2143 66.667 36.2043 66.3336 36.1954 66H119.261C119.633 66.3306 120.002 66.664 120.369 67H36.2255ZM36.2624 68C36.2759 68.3336 36.2905 68.667 36.3063 69H122.497C122.15 68.6642 121.8 68.3308 121.448 68H36.2624ZM36.5516 73C36.5265 72.667 36.5026 72.3337 36.4798 72H125.488C125.805 72.3312 126.121 72.6645 126.435 73H36.5516ZM170.386 72C170.061 72.3313 169.738 72.6646 169.416 73H288.915C289.046 72.6674 289.175 72.3341 289.304 72H170.386ZM289.684 71C289.81 70.6674 289.934 70.3341 290.057 70H172.391C172.052 70.3312 171.714 70.6645 171.378 71H289.684ZM124.516 71C124.186 70.6644 123.854 70.331 123.52 70H36.3571C36.3752 70.3336 36.3945 70.667 36.4149 71H124.516ZM36.6305 74C36.658 74.3337 36.6866 74.667 36.7164 75H128.262C127.963 74.6647 127.663 74.3313 127.36 74H36.6305ZM56.8137 135C56.2842 134.174 55.7639 133.341 55.2528 132.5H156.901C157.081 133.33 157.254 134.164 157.419 135H56.8137ZM57.462 136C58.0136 136.842 58.5748 137.675 59.1455 138.5H158.064C157.921 137.664 157.77 136.83 157.612 136H57.462ZM174.354 138.5H234.633C235.986 137.696 237.325 136.862 238.65 136H173.973C174.106 136.831 174.233 137.664 174.354 138.5ZM232.917 139.5H174.496C174.611 140.331 174.719 141.165 174.822 142H228.296C229.852 141.204 231.393 140.371 232.917 139.5ZM158.231 139.5H59.8449C60.4406 140.343 61.0463 141.176 61.6619 142H158.617C158.496 141.164 158.367 140.331 158.231 139.5ZM62.4172 143C63.0616 143.844 63.7163 144.677 64.3813 145.5H159.081C158.981 144.664 158.873 143.831 158.759 143H62.4172ZM67.3266 149C66.6064 148.178 65.8971 147.345 65.1987 146.5H159.197C159.29 147.331 159.377 148.164 159.456 149H67.3266ZM68.2134 150C68.9727 150.846 69.7437 151.68 70.5261 152.5H159.744C159.686 151.665 159.62 150.831 159.547 150H68.2134ZM74.0166 156C73.1627 155.181 72.321 154.348 71.4918 153.5H159.81C159.863 154.331 159.908 155.165 159.946 156H74.0166ZM75.0737 157C75.9845 157.85 76.9088 158.684 77.8463 159.5H160.063C160.045 158.665 160.02 157.832 159.988 157H75.0737ZM82.0814 163C81.0435 162.187 80.02 161.353 79.0115 160.5H160.081C160.093 161.332 160.098 162.165 160.095 163H82.0814ZM83.3781 164C84.5077 164.857 85.6539 165.691 86.8163 166.5H160.044C160.066 165.665 160.081 164.832 160.089 164H83.3781ZM98.4548 173.5C96.9069 172.706 95.3814 171.872 93.8792 171H159.854C159.807 171.832 159.752 172.665 159.69 173.5H98.4548ZM159.908 170C159.951 169.165 159.986 168.332 160.013 167.5H88.2793C89.5654 168.363 90.8707 169.197 92.1947 170H159.908ZM100.459 174.5C102.293 175.389 104.157 176.223 106.05 177H159.387C159.469 176.166 159.544 175.332 159.612 174.5H100.459ZM116.097 180.5C113.548 179.764 111.044 178.93 108.586 178H159.286C159.198 178.832 159.104 179.666 159.002 180.5H116.097ZM119.837 181.5C121.965 182.024 124.122 182.48 126.307 182.865L126.107 184H158.533C158.655 183.166 158.769 182.332 158.877 181.5H119.837ZM125.489 187.5L125.93 185H158.384C158.256 185.833 158.122 186.666 157.98 187.5H125.489ZM125.313 188.5L124.872 191H157.366L157.807 188.5H125.313ZM124.255 194.5L124.696 192H157.19L156.749 194.5H124.255ZM176.826 153.5C179.794 153.634 182.751 153.633 185.691 153.5H176.826ZM207.761 150C203.877 151.065 199.935 151.902 195.95 152.5H175.765C175.717 151.665 175.662 150.832 175.602 150H207.761ZM211.178 149C213.578 148.253 215.954 147.419 218.303 146.5H175.309C175.388 147.331 175.46 148.165 175.526 149H211.178ZM226.291 143C224.47 143.886 222.629 144.719 220.77 145.5H175.212C175.128 144.665 175.037 143.831 174.941 143H226.291ZM240.161 135C241.363 134.19 242.554 133.357 243.732 132.5H173.37C173.523 133.331 173.669 134.164 173.809 135H240.161ZM53.204 129C53.6776 129.84 54.1602 130.674 54.6516 131.5H156.681C156.493 130.663 156.297 129.83 156.095 129H53.204ZM173.184 131.5H245.087C246.172 130.687 247.247 129.853 248.309 129H172.688C172.859 129.831 173.025 130.664 173.184 131.5ZM249.539 128C250.157 127.49 250.772 126.973 251.382 126.45H172.139C172.254 126.966 172.367 127.482 172.478 128H249.539ZM155.847 128C155.716 127.482 155.582 126.965 155.446 126.45H51.8058C52.0827 126.969 52.3629 127.486 52.6465 128H155.847ZM124.079 195.5L123.638 198H156.132L156.572 195.5H124.079ZM122.201 206.15L122.756 203H155.25L154.695 206.15H122.201ZM155.426 202L155.955 199H123.462L122.933 202H155.426ZM122.025 207.15L121.469 210.3H153.963L154.518 207.15H122.025ZM120.737 214.45L121.293 211.3H153.786L153.231 214.45H120.737ZM120.561 215.45L120.006 218.6H152.499L153.055 215.45H120.561ZM119.274 222.75L119.829 219.6H152.323L151.768 222.75H119.274ZM119.098 223.75L118.542 226.9H151.036L151.591 223.75H119.098ZM117.81 231.05L118.366 227.9H150.859L150.304 231.05H117.81ZM117.634 232.05L117.079 235.2H149.572L150.128 232.05H117.634ZM115.615 243.5L116.17 240.35H148.664L148.109 243.5H115.615ZM148.84 239.35L149.396 236.2H116.902L116.347 239.35H148.84ZM115.439 244.5L114.883 247.65H147.377L147.932 244.5H115.439ZM114.152 251.8L114.707 248.65H147.201L146.645 251.8H114.152ZM113.975 252.8L113.42 255.95H145.913L146.469 252.8H113.975ZM112.688 260.1L113.243 256.95H145.737L145.182 260.1H112.688ZM112.512 261.1L111.956 264.25H144.45L145.005 261.1H112.512ZM111.936 268.4C111.734 267.397 111.682 266.334 111.802 265.25H144.274L143.718 268.4H111.936ZM112.192 269.4C112.564 270.585 113.152 271.66 113.914 272.55H142.678C143.012 271.798 143.262 270.986 143.413 270.13L143.542 269.4H112.192ZM118.177 275.041C116.963 274.827 115.867 274.303 114.938 273.55H142.167C141.403 274.861 140.371 275.941 139.185 276.7H127.584L118.177 275.041ZM133.255 277.7L133.934 277.82C134.943 277.998 135.949 277.946 136.909 277.7H133.255ZM37.0169 78C37.0743 78.5176 37.1345 79.0342 37.1974 79.55H132.111C131.693 79.0292 131.271 78.5125 130.845 78H37.0169ZM132.904 80.55H37.3231C37.39 81.0676 37.4597 81.5843 37.5322 82.1H134.099C133.705 81.5795 133.307 81.0628 132.904 80.55ZM134.849 83.1C135.229 83.6131 135.605 84.1298 135.978 84.65H37.9144C37.8323 84.1343 37.7529 83.6177 37.6764 83.1H134.849ZM137.754 87.2C137.402 86.68 137.046 86.1633 136.686 85.65H38.0774C38.1637 86.1677 38.2529 86.6844 38.3448 87.2H137.754ZM138.424 88.2C138.765 88.7136 139.102 89.2302 139.435 89.75H38.824C38.7221 89.2345 38.6231 88.7178 38.5269 88.2H138.424ZM141.026 92.3C140.71 91.7804 140.392 91.2637 140.069 90.75H39.0254C39.1317 91.2678 39.2408 91.7845 39.3528 92.3H141.026ZM39.932 94.85C39.8098 94.3346 39.6904 93.8179 39.5739 93.3H141.626C141.931 93.8139 142.233 94.3306 142.532 94.85H39.932ZM161.365 94.85C161.121 94.3315 160.875 93.8148 160.625 93.3H279.013C278.706 93.8193 278.396 94.336 278.083 94.85H161.365ZM280.484 90.75C280.192 91.2692 279.897 91.7859 279.598 92.3H160.136C159.88 91.7813 159.621 91.2647 159.359 90.75H280.484ZM143.957 97.4C143.675 96.8808 143.389 96.3641 143.1 95.85H40.1731C40.3001 96.368 40.4299 96.8847 40.5626 97.4H143.957ZM144.495 98.4C144.768 98.9142 145.039 99.4309 145.305 99.95H41.2457C41.1023 99.4347 40.9618 98.918 40.8242 98.4H144.495ZM146.581 102.5C146.328 101.981 146.073 101.464 145.814 100.95H41.5281C41.6765 101.468 41.8279 101.985 41.9822 102.5H146.581ZM147.062 103.5C147.306 104.014 147.548 104.531 147.786 105.05H42.7736C42.6081 104.535 42.4456 104.018 42.286 103.5H147.062ZM148.923 107.6C148.699 107.081 148.471 106.565 148.24 106.05H43.0992C43.2702 106.568 43.4442 107.085 43.6212 107.6H148.923ZM149.352 108.6C149.569 109.115 149.784 109.631 149.996 110.15H44.5264C44.3377 109.635 44.1519 109.118 43.9692 108.6H149.352ZM151.006 112.7C150.807 112.182 150.605 111.665 150.399 111.15H44.8976C45.0924 111.668 45.2903 112.185 45.4912 112.7H151.006ZM152.311 116.25C152.492 116.765 152.67 117.282 152.845 117.8H47.6064C47.38 117.285 47.1567 116.769 46.9366 116.25H152.311ZM151.955 115.25H46.5171C46.3037 114.735 46.0933 114.219 45.8861 113.7H151.385C151.578 114.215 151.768 114.732 151.955 115.25ZM262.879 115.25H169.192C169.035 114.732 168.875 114.215 168.713 113.7H264.26C263.803 114.221 263.343 114.738 262.879 115.25ZM169.492 116.25H261.964C261.481 116.771 260.996 117.288 260.506 117.8H169.941C169.794 117.282 169.644 116.765 169.492 116.25ZM153.678 120.35C153.514 119.832 153.348 119.315 153.178 118.8H48.0513C48.2848 119.319 48.5214 119.835 48.7613 120.35H153.678ZM153.989 121.35C154.147 121.865 154.302 122.382 154.455 122.9H49.9843C49.7305 122.386 49.48 121.869 49.2326 121.35H153.989ZM155.177 125.45C155.036 124.932 154.892 124.415 154.745 123.9H50.4831C50.7449 124.419 51.01 124.936 51.2783 125.45H155.177ZM252.534 125.45H171.911C171.792 124.932 171.67 124.416 171.545 123.9H254.265C253.692 124.423 253.115 124.939 252.534 125.45ZM171.3 122.9H255.348C255.896 122.389 256.439 121.872 256.979 121.35H170.907C171.04 121.866 171.172 122.382 171.3 122.9ZM258 120.35H170.644C170.506 119.832 170.365 119.315 170.222 118.8H259.54C259.031 119.322 258.517 119.838 258 120.35ZM265.129 112.7H168.394C168.227 112.182 168.058 111.665 167.886 111.15H266.441C266.007 111.671 265.569 112.187 265.129 112.7ZM167.548 110.15H267.265C267.684 109.637 268.1 109.12 268.512 108.6H167.009C167.191 109.115 167.371 109.632 167.548 110.15ZM269.297 107.6H166.651C166.464 107.082 166.273 106.565 166.081 106.05H270.483C270.091 106.57 269.695 107.087 269.297 107.6ZM165.703 105.05H271.23C271.609 104.537 271.986 104.02 272.359 103.5H165.1C165.304 104.015 165.505 104.532 165.703 105.05ZM273.07 102.5H164.701C164.492 101.982 164.281 101.465 164.066 100.95H274.145C273.79 101.47 273.431 101.986 273.07 102.5ZM163.646 99.95H274.822C275.167 99.4363 275.508 98.9196 275.847 98.4H162.977C163.203 98.915 163.426 99.4316 163.646 99.95ZM276.492 97.4H162.534C162.303 96.8815 162.068 96.3649 161.831 95.85H277.468C277.146 96.3695 276.82 96.8861 276.492 97.4ZM158.846 89.75H281.042C281.326 89.2358 281.607 88.7191 281.885 88.2H158.03C158.305 88.7146 158.577 89.2313 158.846 89.75ZM282.416 87.2H157.583C157.959 86.68 158.338 86.1633 158.72 85.65H283.219C282.954 86.169 282.687 86.6857 282.416 87.2ZM159.471 84.65H283.724C283.982 84.1355 284.236 83.6189 284.488 83.1H160.665C160.264 83.6131 159.866 84.1298 159.471 84.65ZM284.968 82.1H161.455C161.87 81.5795 162.288 81.0628 162.71 80.55H285.694C285.455 81.0687 285.213 81.5854 284.968 82.1ZM286.839 78C286.612 78.5187 286.382 79.0353 286.15 79.55H163.54C163.977 79.0293 164.417 78.5126 164.86 78H286.839ZM36.9096 77C36.8751 76.667 36.8417 76.3337 36.8095 76H129.144C129.432 76.3315 129.719 76.6648 130.004 77H36.9096ZM287.272 77H165.734C166.03 76.6649 166.328 76.3315 166.626 76H287.696C287.556 76.3341 287.414 76.6675 287.272 77ZM288.517 74C288.383 74.3341 288.247 74.6674 288.111 75H167.537C167.845 74.6648 168.155 74.3314 168.467 74H288.517ZM290.776 68C290.659 68.334 290.54 68.6674 290.421 69H173.428C173.78 68.6643 174.133 68.331 174.488 68H290.776ZM291.124 67C291.238 66.6674 291.351 66.334 291.463 66H176.685C176.313 66.3308 175.942 66.6642 175.574 67H291.124ZM292.118 64C292.012 64.334 291.904 64.6673 291.795 65H177.823C178.211 64.664 178.6 64.3306 178.99 64H292.118ZM292.434 63C292.538 62.6673 292.64 62.334 292.742 62H181.415C181.004 62.3304 180.595 62.6637 180.187 63H292.434ZM293.334 60C293.238 60.334 293.14 60.6673 293.042 61H182.677C183.107 60.6635 183.539 60.3301 183.973 60H293.334ZM293.619 59C293.713 58.6673 293.805 58.3339 293.896 58H186.68C186.221 58.3298 185.763 58.6631 185.307 59H293.619ZM294.428 56C294.342 56.3339 294.255 56.6673 294.166 57H188.096C188.58 56.6627 189.067 56.3294 189.556 56H294.428ZM295.849 50C295.777 50.3339 295.704 50.6672 295.63 51H197.674C198.279 50.6608 198.887 50.3274 199.497 50H295.849ZM296.06 49C296.13 48.6672 296.198 48.3339 296.265 48H203.407C202.737 48.3263 202.07 48.6597 201.405 49H296.06ZM296.653 46C296.59 46.3338 296.527 46.6672 296.462 47H205.517C206.258 46.6581 207.003 46.3247 207.751 46H296.653ZM296.836 45C296.869 44.8181 296.902 44.6361 296.934 44.4539L294.359 44H212.685C211.83 44.3222 210.978 44.6556 210.13 45H296.836ZM215.454 43H288.688L283.017 42H218.498C217.479 42.3176 216.464 42.651 215.454 43ZM47.9771 38L53.6484 39H37.971C38.0236 38.6668 38.0773 38.3334 38.1323 38H47.9771Z" fill="url(#paint0_linear)"/>
</g>
<defs>
<linearGradient id="paint0_linear" x1="140" y1="83.5" x2="36" y2="304.5" gradientUnits="userSpaceOnUse">
<stop stop-color="#49E303"/>
<stop offset="1"/>
</linearGradient>
</defs>
</svg>
