<svg width="510" height="295" viewBox="0 0 510 295" fill="none" xmlns="http://www.w3.org/2000/svg">
<path d="M189.642 166.2C185.242 166.2 181.509 164.667 178.442 161.6C175.376 158.533 173.842 154.8 173.842 150.4C173.842 146 175.376 142.267 178.442 139.2C181.509 136 185.242 134.4 189.642 134.4C194.042 134.4 197.776 136 200.842 139.2C204.042 142.267 205.642 146 205.642 150.4C205.642 154.8 204.042 158.533 200.842 161.6C197.776 164.667 194.042 166.2 189.642 166.2ZM176.042 278.2C169.642 278.2 164.442 276.2 160.442 272.2C156.576 268.2 154.642 262.2 154.642 254.2C154.642 250.867 155.176 246.533 156.242 241.2L169.842 177H198.642L184.242 245C183.709 247 183.442 249.133 183.442 251.4C183.442 254.067 184.042 256 185.242 257.2C186.576 258.267 188.709 258.8 191.642 258.8C195.509 258.8 199.109 257.2 202.442 254C205.776 250.667 208.176 246.4 209.642 241.2H218.042C213.109 255.6 206.776 265.4 199.042 270.6C191.309 275.667 183.642 278.2 176.042 278.2Z" fill="#333333"/>
<path d="M238.163 278.2C228.296 278.2 220.629 275.667 215.163 270.6C209.696 265.4 206.963 257.333 206.963 246.4C206.963 237.2 208.763 227.067 212.363 216C215.963 204.933 221.829 195.4 229.963 187.4C238.096 179.267 248.429 175.2 260.963 175.2C275.629 175.2 282.963 181.6 282.963 194.4C282.963 201.867 280.829 208.733 276.563 215C272.296 221.267 266.629 226.333 259.563 230.2C252.496 233.933 244.963 236.067 236.963 236.6C236.696 240.6 236.563 243.267 236.563 244.6C236.563 251.133 237.696 255.6 239.963 258C242.229 260.267 245.896 261.4 250.963 261.4C258.163 261.4 264.296 259.733 269.363 256.4C274.563 253.067 280.229 248 286.363 241.2H293.163C278.363 265.867 260.029 278.2 238.163 278.2ZM238.563 227C243.496 226.733 248.163 225 252.563 221.8C257.096 218.6 260.696 214.533 263.363 209.6C266.163 204.667 267.563 199.467 267.563 194C267.563 188.533 265.896 185.8 262.563 185.8C257.763 185.8 253.029 190 248.363 198.4C243.829 206.8 240.563 216.333 238.563 227Z" fill="#333333"/>
<path d="M306.12 278.2C299.72 278.2 294.52 276.2 290.52 272.2C286.654 268.2 284.72 262.2 284.72 254.2C284.72 250.867 285.254 246.533 286.32 241.2L307.72 141L337.32 137L314.32 245C313.787 247 313.52 249.133 313.52 251.4C313.52 254.067 314.12 256 315.32 257.2C316.654 258.267 318.787 258.8 321.72 258.8C325.587 258.8 329.187 257.2 332.52 254C335.854 250.667 338.254 246.4 339.72 241.2H348.12C343.187 255.6 336.854 265.4 329.12 270.6C321.387 275.667 313.72 278.2 306.12 278.2Z" fill="#333333"/>
<path d="M363.641 278.2C356.041 278.2 349.707 275.6 344.641 270.4C339.574 265.2 337.041 257.067 337.041 246C337.041 236.133 338.974 225.8 342.841 215C346.841 204.067 352.707 194.867 360.441 187.4C368.307 179.8 377.641 176 388.441 176C393.907 176 397.974 176.933 400.641 178.8C403.307 180.667 404.641 183.133 404.641 186.2V187L414.441 141L444.041 137L421.041 245C420.507 247 420.241 248.933 420.241 250.8C420.241 256.133 422.974 258.8 428.441 258.8C430.841 258.8 432.974 258.4 434.841 257.6C434.307 264.267 431.907 269.4 427.641 273C423.507 276.467 418.574 278.2 412.841 278.2C407.507 278.2 402.974 276.867 399.241 274.2C395.641 271.4 393.241 267.2 392.041 261.6C384.041 272.667 374.574 278.2 363.641 278.2ZM376.641 258.8C379.574 258.8 382.507 257.533 385.441 255C388.507 252.467 390.774 248.933 392.241 244.4L393.041 241.2L402.841 195.4C401.641 190.733 398.907 188.4 394.641 188.4C389.307 188.4 384.507 191.533 380.241 197.8C375.974 203.933 372.641 211.4 370.241 220.2C367.841 228.867 366.641 236.533 366.641 243.2C366.641 249.867 367.574 254.133 369.441 256C371.441 257.867 373.841 258.8 376.641 258.8Z" fill="#333333"/>
<path d="M189.642 166.2C185.242 166.2 181.509 164.667 178.442 161.6C175.375 158.533 173.842 154.8 173.842 150.4C173.842 146 175.375 142.267 178.442 139.2C181.509 136 185.242 134.4 189.642 134.4C194.042 134.4 197.775 136 200.842 139.2C204.042 142.267 205.642 146 205.642 150.4C205.642 154.8 204.042 158.533 200.842 161.6C197.775 164.667 194.042 166.2 189.642 166.2Z" fill="#FF0000"/>
<g style="mix-blend-mode:overlay">
<path fill-rule="evenodd" clip-rule="evenodd" d="M58.1856 39.8L38.4196 36.3148C38.2146 37.4778 38.0237 38.6397 37.8469 39.8H58.1856ZM63.8569 40.8H37.6979C37.5133 42.0686 37.3455 43.3354 37.1942 44.6H81.3727C77.6535 43.4739 73.8378 42.5599 69.9335 41.8715L63.8569 40.8ZM36.6987 49.4C36.8086 48.1358 36.935 46.869 37.0781 45.6H84.4869C87.7415 46.7053 90.9181 47.9751 94.0112 49.4H36.6987ZM36.6152 50.4C36.5136 51.6694 36.4286 52.9362 36.36 54.1999H103.151C100.86 52.842 98.5142 51.5738 96.1163 50.4H36.6152ZM36.1781 59C36.2053 57.7366 36.2489 56.4698 36.3092 55.1999H104.801C106.744 56.4022 108.646 57.6698 110.505 59H36.1781ZM36.16 60C36.1414 61.2703 36.1393 62.5371 36.1537 63.8H116.709C115.135 62.4852 113.524 61.2179 111.879 60H36.16ZM36.2879 68.6C36.2316 67.3376 36.1918 66.0708 36.1685 64.8H117.889C119.317 66.0277 120.715 67.2949 122.081 68.6H36.2879ZM36.3359 69.6C36.4015 70.8713 36.4836 72.1381 36.5823 73.4H126.808C125.604 72.1016 124.373 70.8345 123.114 69.6H36.3359ZM37.6616 83C37.4761 81.7391 37.3072 80.4723 37.1551 79.1999H131.829C132.835 80.4432 133.817 81.7102 134.774 83H37.6616ZM163.835 79.1999C162.785 80.4435 161.754 81.7104 160.744 83H284.536C285.143 81.7459 285.734 80.4791 286.307 79.1999H163.835ZM286.751 78.1999C287.302 76.9449 287.837 75.6782 288.356 74.4H168.092C166.937 75.6403 165.802 76.9072 164.688 78.1999H286.751ZM131.011 78.1999C129.941 76.9064 128.845 75.6394 127.724 74.4H36.664C36.7724 75.6718 36.8975 76.9385 37.0392 78.1999H131.011ZM37.8124 84C38.0091 85.273 38.2227 86.5398 38.4531 87.8001H138.158C137.298 86.5132 136.414 85.2462 135.509 84H37.8124ZM39.4183 92.5999C39.1418 91.3404 38.8822 90.0737 38.6397 88.8001H138.82C139.637 90.0487 140.433 91.3155 141.207 92.5999H39.4183ZM39.6417 93.5999C39.9314 94.8743 40.2385 96.1412 40.5626 97.4H143.957C143.26 96.1175 142.542 94.8506 141.804 93.5999H39.6417ZM41.8927 102.2C41.5191 100.942 41.1628 99.6751 40.8242 98.4H144.495C145.161 99.6524 145.808 100.919 146.434 102.2H41.8927ZM42.1939 103.2C42.5837 104.476 42.9913 105.743 43.4166 107H148.662C148.1 105.721 147.518 104.454 146.918 103.2H42.1939ZM45.1438 111.8C44.6642 110.544 44.2026 109.277 43.7593 108H149.096C149.635 109.255 150.155 110.522 150.656 111.8H45.1438ZM45.5302 112.8C46.0301 114.078 46.5487 115.345 47.0857 116.6H152.433C151.988 115.323 151.525 114.056 151.044 112.8H45.5302ZM51.6729 126.2C51.0086 124.948 50.3639 123.681 49.739 122.4H154.307C154.682 123.658 155.04 124.925 155.38 126.2H51.6729ZM171.175 122.4C171.493 123.66 171.795 124.927 172.082 126.2H251.673C253.099 124.97 254.502 123.703 255.881 122.4H171.175ZM256.927 121.4C258.206 120.164 259.463 118.897 260.697 117.6H169.884C170.245 118.859 170.59 120.126 170.92 121.4H256.927ZM154.004 121.4C153.613 120.124 153.204 118.857 152.777 117.6H47.5186C48.0788 118.879 48.6582 120.146 49.2565 121.4H154.004ZM52.2091 127.2C52.9042 128.482 53.6199 129.749 54.3558 131H156.567C156.276 129.726 155.968 128.459 155.642 127.2H52.2091ZM57.3312 135.8C56.5165 134.551 55.7228 133.284 54.9506 132H156.792C157.07 133.26 157.331 134.526 157.574 135.8H57.3312ZM57.9908 136.8C59.1535 138.544 60.3576 140.251 61.6021 141.92H158.605C158.355 140.202 158.074 138.495 157.762 136.8H57.9908ZM66.4949 148.04C65.0713 146.379 63.6912 144.671 62.3561 142.92H158.747C158.982 144.616 159.187 146.323 159.362 148.04H66.4949ZM67.3618 149.04C68.9063 150.801 70.5004 152.509 72.1425 154.16H159.851C159.75 152.445 159.62 150.738 159.46 149.04H67.3618ZM78.7522 160.28C76.8297 158.643 74.9615 156.935 73.1498 155.16H159.905C159.993 156.859 160.05 158.566 160.077 160.28H78.7522ZM79.9444 161.28C82.1208 163.079 84.3647 164.787 86.6728 166.4H160.046C160.091 164.687 160.105 162.98 160.09 161.28H79.9444ZM96.5929 172.52C93.6882 170.952 90.8657 169.242 88.1304 167.4H160.017C159.961 169.101 159.875 170.808 159.759 172.52H96.5929ZM98.4937 173.52H159.688C159.561 175.222 159.404 176.929 159.217 178.64H110.327C106.254 177.186 102.306 175.473 98.4937 173.52ZM126.307 182.865C121.844 182.078 117.496 180.997 113.276 179.64H159.104C158.907 181.343 158.679 183.05 158.42 184.76H125.973L126.307 182.865ZM125.796 185.76L124.893 190.88H157.387L157.82 188.422C157.977 187.534 158.125 186.646 158.265 185.76H125.796ZM123.814 197L124.717 191.88H157.211L156.308 197H123.814ZM123.638 198L122.735 203.12H155.229L156.132 198H123.638ZM121.656 209.24L122.559 204.12H155.052L154.15 209.24H121.656ZM121.48 210.24L120.577 215.36H153.071L153.973 210.24H121.48ZM119.498 221.48L120.401 216.36H152.894L151.991 221.48H119.498ZM118.242 228.6L117.34 233.72H149.833L150.736 228.6H118.242ZM151.815 222.48L150.912 227.6H118.419L119.321 222.48H151.815ZM116.26 239.84L117.163 234.72H149.657L148.754 239.84H116.26ZM116.084 240.84L115.181 245.96H147.675L148.578 240.84H116.084ZM114.102 252.08L115.005 246.96H147.499L146.596 252.08H114.102ZM113.926 253.08L113.023 258.2H145.517L146.42 253.08H113.926ZM175.529 149.04C175.644 150.504 175.74 151.974 175.817 153.449C187.852 154.117 199.716 152.551 211.049 149.04H175.529ZM214.11 148.04C218.31 146.597 222.432 144.885 226.456 142.92H174.932C175.13 144.618 175.302 146.325 175.447 148.04H214.11ZM237.403 136.8C234.484 138.648 231.498 140.357 228.453 141.92H174.812C174.601 140.204 174.363 138.497 174.099 136.8H237.403ZM238.956 135.8C240.804 134.589 242.624 133.322 244.414 132H173.278C173.513 133.261 173.734 134.528 173.94 135.8H238.956ZM111.899 264.573L112.847 259.2H145.34L144.036 266.6H111.74C111.728 265.936 111.779 265.257 111.899 264.573ZM111.809 267.6H143.859L143.413 270.13C143.079 272.022 142.26 273.694 141.134 275H117.962C114.636 274.305 112.241 271.266 111.809 267.6ZM123.614 276L133.934 277.82C136.169 278.214 138.386 277.484 140.129 276H123.614ZM250.499 127.2C248.942 128.51 247.358 129.777 245.749 131H173.088C172.842 129.727 172.58 128.46 172.305 127.2H250.499ZM265.043 112.8C263.929 114.093 262.794 115.36 261.639 116.6H169.595C169.221 115.326 168.831 114.059 168.427 112.8H265.043ZM265.895 111.8C266.945 110.557 267.975 109.29 268.985 108H166.795C167.246 109.258 167.682 110.525 168.101 111.8H265.895ZM272.574 103.2C271.655 104.487 270.717 105.754 269.76 107H166.432C165.965 105.724 165.481 104.457 164.982 103.2H272.574ZM273.28 102.2C274.154 100.952 275.01 99.6849 275.847 98.4H162.977C163.528 99.6565 164.062 100.923 164.58 102.2H273.28ZM278.835 93.5999C278.072 94.8831 277.291 96.1499 276.492 97.4H162.534C161.963 96.1224 161.375 94.8556 160.77 93.5999H278.835ZM279.424 92.5999C280.154 91.3484 280.867 90.0816 281.562 88.8001H158.349C159.011 90.0546 159.656 91.3214 160.284 92.5999H279.424ZM284.047 84C283.415 85.2803 282.765 86.5472 282.099 87.8001H157.816C157.721 87.6239 157.626 87.448 157.531 87.2723C158.329 86.1664 159.141 85.0755 159.968 84H284.047ZM290.203 69.6C289.737 70.8774 289.255 72.1441 288.757 73.4H169.034C170.268 72.1031 171.525 70.8361 172.803 69.6H290.203ZM290.564 68.6C291.012 67.3433 291.444 66.0766 291.86 64.8H178.054C176.629 66.0306 175.227 67.2976 173.849 68.6H290.564ZM293.334 60C292.966 61.2759 292.582 62.5426 292.182 63.8H179.227C180.783 62.4899 182.366 61.2227 183.973 60H293.334ZM293.619 59C293.973 57.7419 294.311 56.4752 294.633 55.1999H190.759C188.914 56.411 187.095 57.6783 185.307 59H293.619ZM295.762 50.4C295.484 51.6747 295.191 52.9414 294.882 54.1999H192.31C194.425 52.8592 196.576 51.5917 198.758 50.4H295.762ZM295.977 49.4C296.242 48.1409 296.492 46.8742 296.727 45.6H208.684C205.958 46.7534 203.272 48.0216 200.631 49.4H295.977ZM296.934 44.4539L296.908 44.6H211.129C214.903 43.1106 218.747 41.8401 222.649 40.8H276.212L296.934 44.4539ZM270.54 39.8H226.735C239.254 37.0082 252.298 36.5835 265.42 38.8972L270.54 39.8Z" fill="url(#paint0_linear)"/>
</g>
<defs>
<linearGradient id="paint0_linear" x1="140" y1="83.5" x2="36" y2="304.5" gradientUnits="userSpaceOnUse">
<stop stop-color="#49E303"/>
<stop offset="1"/>
</linearGradient>
</defs>
</svg>
