<svg width="510" height="295" viewBox="0 0 510 295" fill="none" xmlns="http://www.w3.org/2000/svg">
<path d="M32 55.3125H0C0 126.585 50.15 184.375 112 184.375V267.344C112 272.414 115.6 276.562 120 276.562H136C140.4 276.562 144 272.414 144 267.344V184.375C144 113.103 93.85 55.3125 32 55.3125ZM224 18.4375C181.9 18.4375 145.3 45.2295 126.15 84.8125C140 102.213 150.25 123.358 155.65 146.809C212 140.067 256 85.2158 256 18.4375H224Z" fill="url(#paint0_linear)"/>
<path d="M269.587 271.84C273.185 270.55 276.551 268.919 279.68 266.946L279.687 266.942L279.693 266.938C282.84 264.886 285.55 262.486 287.818 259.736L288.325 259.122L287.839 258.49L282.852 252.006C281.852 250.601 280.409 249.9 278.647 249.9C277.223 249.9 275.657 250.559 273.996 251.665C272.502 252.64 270.602 253.721 268.29 254.911C266.017 256.08 263.271 257.193 260.043 258.247C256.966 259.208 253.241 259.7 248.847 259.7C244.157 259.7 239.953 258.952 236.222 257.473C232.5 255.931 229.294 253.655 226.596 250.638C223.899 247.554 221.761 243.712 220.196 239.086C218.782 234.718 217.94 229.593 217.685 223.7H284.347C286.172 223.7 287.724 223.186 288.588 221.841C288.997 221.204 289.251 220.346 289.409 219.359C289.571 218.354 289.647 217.13 289.647 215.7C289.647 208.403 288.566 201.879 286.382 196.146C284.206 190.367 281.169 185.51 277.26 181.599C273.425 177.629 268.838 174.619 263.513 172.569C258.252 170.453 252.526 169.4 246.347 169.4C238.896 169.4 232.157 170.721 226.146 173.384C220.157 175.971 215.072 179.586 210.905 184.229C206.744 188.801 203.546 194.216 201.306 200.462L201.302 200.471C199.129 206.719 198.047 213.431 198.047 220.6C198.047 229.423 199.259 237.274 201.705 244.136C204.144 250.979 207.543 256.768 211.914 261.48L211.919 261.486L211.924 261.491C216.355 266.127 221.573 269.673 227.568 272.126L227.581 272.131C233.642 274.514 240.234 275.7 247.347 275.7C251.071 275.7 254.827 275.362 258.613 274.686C262.404 274.076 266.062 273.128 269.587 271.84ZM269.587 271.84C269.588 271.84 269.589 271.84 269.59 271.839L269.247 270.9L269.584 271.841C269.585 271.841 269.586 271.841 269.587 271.84ZM176.6 172V171H175.6H157.8H156.8V172V273.3V274.3H157.8H175.6H176.6V273.3V172ZM161.186 152.71L161.194 152.714L161.201 152.717C162.865 153.44 164.635 153.8 166.5 153.8C168.363 153.8 170.13 153.441 171.792 152.72C173.499 152.008 174.976 151.038 176.207 149.807C177.485 148.529 178.488 147.101 179.206 145.523C180.003 143.854 180.4 142.076 180.4 140.2C180.4 138.329 180.005 136.556 179.213 134.892C178.5 133.188 177.498 131.718 176.207 130.493C174.979 129.197 173.502 128.194 171.792 127.48C170.13 126.759 168.363 126.4 166.5 126.4C164.635 126.4 162.865 126.76 161.201 127.483L161.194 127.486L161.186 127.49C159.603 128.209 158.201 129.216 156.983 130.503C155.756 131.732 154.79 133.205 154.08 134.908C153.359 136.57 153 138.337 153 140.2C153 142.065 153.36 143.835 154.083 145.499L154.086 145.506L154.09 145.514C154.803 147.083 155.766 148.508 156.973 149.787L156.983 149.797L156.993 149.807C158.211 151.026 159.611 151.994 161.186 152.71ZM269.896 200.611L269.9 200.622L269.904 200.633C270.965 203.639 271.545 206.958 271.635 210.6H218.405C219.685 202.508 222.623 196.238 227.154 191.707C231.929 186.932 238.42 184.5 246.747 184.5C250.698 184.5 254.192 185.18 257.246 186.516L257.254 186.52L257.262 186.523C260.325 187.799 262.896 189.643 264.992 192.056L265.001 192.066L265.011 192.077C267.172 194.429 268.803 197.268 269.896 200.611ZM329.911 126V125H328.911H311.111H310.111V126V273.3V274.3H311.111H328.911H329.911V273.3V126ZM412.555 187.707L412.561 187.71L412.568 187.713C416.163 189.324 419.572 192.206 422.777 196.434V244.664C419.227 249.318 415.352 252.903 411.158 255.445L411.152 255.448C407 258.004 402.087 259.3 396.377 259.3C392.425 259.3 388.932 258.62 385.877 257.284C382.851 255.96 380.288 253.878 378.186 251.013C376.08 248.076 374.459 244.338 373.349 239.767C372.239 235.131 371.677 229.547 371.677 223C371.677 210.651 374.189 201.296 379.076 194.801C383.93 188.351 390.849 185.1 399.977 185.1C404.649 185.1 408.836 185.975 412.555 187.707ZM442.577 126V125H441.577H423.777H422.777V126V179.66C419.652 176.671 416.161 174.282 412.305 172.496C407.739 170.284 402.285 169.2 395.977 169.2C389.04 169.2 382.752 170.595 377.132 173.404C371.599 176.137 366.916 179.931 363.091 184.781C359.273 189.621 356.354 195.334 354.322 201.903C352.289 208.409 351.277 215.444 351.277 223C351.277 231.469 352.184 238.996 354.013 245.568C355.84 252.131 358.457 257.654 361.884 262.11C365.309 266.562 369.464 269.965 374.345 272.302L374.355 272.307C379.234 274.575 384.647 275.7 390.577 275.7C397.995 275.7 404.572 274.065 410.277 270.766C415.299 267.861 419.831 264.152 423.873 259.643L425.185 269.729L425.194 269.796L425.211 269.861C425.586 271.249 426.252 272.385 427.266 273.167C428.281 273.95 429.546 274.3 430.977 274.3H441.577H442.577V273.3V126Z" fill="#E5E5E5" stroke="#E5E5E5" stroke-width="2"/>
<path d="M161.186 152.71L161.194 152.714L161.201 152.717C162.865 153.44 164.635 153.8 166.5 153.8C168.363 153.8 170.13 153.441 171.792 152.72C173.499 152.008 174.976 151.038 176.207 149.807C177.485 148.529 178.488 147.101 179.206 145.523C180.003 143.854 180.4 142.076 180.4 140.2C180.4 138.329 180.005 136.556 179.213 134.892C178.5 133.188 177.498 131.718 176.207 130.493C174.979 129.197 173.502 128.194 171.792 127.48C170.13 126.759 168.363 126.4 166.5 126.4C164.635 126.4 162.865 126.76 161.201 127.483L161.194 127.486L161.186 127.49C159.603 128.209 158.201 129.216 156.983 130.503C155.756 131.732 154.79 133.205 154.08 134.908C153.359 136.57 153 138.337 153 140.2C153 142.065 153.36 143.835 154.083 145.499L154.086 145.506L154.09 145.514C154.803 147.083 155.766 148.508 156.973 149.787L156.983 149.797L156.993 149.807C158.211 151.026 159.611 151.994 161.186 152.71Z" fill="#FF0000" stroke="#FF0000" stroke-width="2"/>
<defs>
<linearGradient id="paint0_linear" x1="2.05787e-06" y1="147" x2="256" y2="147" gradientUnits="userSpaceOnUse">
<stop stop-color="#49E303"/>
<stop offset="1" stop-color="#78F029"/>
</linearGradient>
</defs>
</svg>
