<svg width="510" height="295" viewBox="0 0 510 295" fill="none" xmlns="http://www.w3.org/2000/svg">
<path d="M228.9 175.7V277H211.1V175.7H228.9ZM232.7 143.9C232.7 145.633 232.333 147.267 231.6 148.8C230.933 150.267 230 151.6 228.8 152.8C227.667 153.933 226.3 154.833 224.7 155.5C223.167 156.167 221.533 156.5 219.8 156.5C218.067 156.5 216.433 156.167 214.9 155.5C213.433 154.833 212.133 153.933 211 152.8C209.867 151.6 208.967 150.267 208.3 148.8C207.633 147.267 207.3 145.633 207.3 143.9C207.3 142.167 207.633 140.533 208.3 139C208.967 137.4 209.867 136.033 211 134.9C212.133 133.7 213.433 132.767 214.9 132.1C216.433 131.433 218.067 131.1 219.8 131.1C221.533 131.1 223.167 131.433 224.7 132.1C226.3 132.767 227.667 133.7 228.8 134.9C230 136.033 230.933 137.4 231.6 139C232.333 140.533 232.7 142.167 232.7 143.9ZM325.947 215.3C325.947 211.167 325.347 207.4 324.147 204C323.014 200.533 321.314 197.567 319.047 195.1C316.847 192.567 314.147 190.633 310.947 189.3C307.747 187.9 304.114 187.2 300.047 187.2C291.514 187.2 284.747 189.7 279.747 194.7C274.814 199.633 271.747 206.5 270.547 215.3H325.947ZM340.347 262.8C338.147 265.467 335.514 267.8 332.447 269.8C329.38 271.733 326.08 273.333 322.547 274.6C319.08 275.867 315.48 276.8 311.747 277.4C308.014 278.067 304.314 278.4 300.647 278.4C293.647 278.4 287.18 277.233 281.247 274.9C275.38 272.5 270.28 269.033 265.947 264.5C261.68 259.9 258.347 254.233 255.947 247.5C253.547 240.767 252.347 233.033 252.347 224.3C252.347 217.233 253.414 210.633 255.547 204.5C257.747 198.367 260.88 193.067 264.947 188.6C269.014 184.067 273.98 180.533 279.847 178C285.714 175.4 292.314 174.1 299.647 174.1C305.714 174.1 311.314 175.133 316.447 177.2C321.647 179.2 326.114 182.133 329.847 186C333.647 189.8 336.614 194.533 338.747 200.2C340.88 205.8 341.947 212.2 341.947 219.4C341.947 222.2 341.647 224.067 341.047 225C340.447 225.933 339.314 226.4 337.647 226.4H269.947C270.147 232.8 271.014 238.367 272.547 243.1C274.147 247.833 276.347 251.8 279.147 255C281.947 258.133 285.28 260.5 289.147 262.1C293.014 263.633 297.347 264.4 302.147 264.4C306.614 264.4 310.447 263.9 313.647 262.9C316.914 261.833 319.714 260.7 322.047 259.5C324.38 258.3 326.314 257.2 327.847 256.2C329.447 255.133 330.814 254.6 331.947 254.6C333.414 254.6 334.547 255.167 335.347 256.3L340.347 262.8ZM382.211 129.7V277H364.411V129.7H382.211ZM477.077 199.8C473.743 195.333 470.143 192.233 466.277 190.5C462.41 188.7 458.077 187.8 453.277 187.8C443.877 187.8 436.643 191.167 431.577 197.9C426.51 204.633 423.977 214.233 423.977 226.7C423.977 233.3 424.543 238.967 425.677 243.7C426.81 248.367 428.477 252.233 430.677 255.3C432.877 258.3 435.577 260.5 438.777 261.9C441.977 263.3 445.61 264 449.677 264C455.543 264 460.643 262.667 464.977 260C469.377 257.333 473.41 253.567 477.077 248.7V199.8ZM494.877 129.7V277H484.277C481.743 277 480.143 275.767 479.477 273.3L477.877 261C473.543 266.2 468.61 270.4 463.077 273.6C457.543 276.8 451.143 278.4 443.877 278.4C438.077 278.4 432.81 277.3 428.077 275.1C423.343 272.833 419.31 269.533 415.977 265.2C412.643 260.867 410.077 255.467 408.277 249C406.477 242.533 405.577 235.1 405.577 226.7C405.577 219.233 406.577 212.3 408.577 205.9C410.577 199.433 413.443 193.833 417.177 189.1C420.91 184.367 425.477 180.667 430.877 178C436.343 175.267 442.477 173.9 449.277 173.9C455.477 173.9 460.777 174.967 465.177 177.1C469.643 179.167 473.61 182.067 477.077 185.8V129.7H494.877Z" fill="white"/>
<path d="M32 55.3125H0C0 126.585 50.15 184.375 112 184.375V267.344C112 272.414 115.6 276.562 120 276.562H136C140.4 276.562 144 272.414 144 267.344V184.375C144 113.103 93.85 55.3125 32 55.3125ZM224 18.4375C181.9 18.4375 145.3 45.2295 126.15 84.8125C140 102.213 150.25 123.358 155.65 146.809C212 140.067 256 85.2158 256 18.4375H224Z" fill="#49E303"/>
</svg>
