<svg width="510" height="295" viewBox="0 0 510 295" fill="none" xmlns="http://www.w3.org/2000/svg">
<g style="mix-blend-mode:overlay">
<path d="M69.9335 41.8715L38.4196 36.3148C26.0433 106.504 65.3963 172.125 126.307 182.865L111.899 264.573C111.019 269.567 113.844 274.277 118.177 275.041L133.934 277.82C138.267 278.584 142.533 275.123 143.413 270.13L157.82 188.422C170.197 118.232 130.844 52.6116 69.9335 41.8715ZM265.42 38.8972C223.959 31.5866 183.263 51.616 157.531 87.2723C168.149 106.813 174.571 129.418 175.817 153.449C232.481 156.595 285.338 110.218 296.934 44.4539L265.42 38.8972Z" fill="url(#paint0_linear)"/>
</g>
<mask id="mask0" mask-type="alpha" maskUnits="userSpaceOnUse" x="36" y="36" width="261" height="242">
<g style="mix-blend-mode:overlay">
<path d="M69.9335 41.8715L38.4196 36.3148C26.0433 106.504 65.3963 172.125 126.307 182.865L111.899 264.573C111.019 269.567 113.844 274.277 118.177 275.041L133.934 277.82C138.267 278.584 142.533 275.123 143.413 270.13L157.82 188.422C170.197 118.232 130.844 52.6116 69.9335 41.8715ZM265.42 38.8972C223.959 31.5866 183.263 51.616 157.531 87.2723C168.149 106.813 174.571 129.418 175.817 153.449C232.481 156.595 285.338 110.218 296.934 44.4539L265.42 38.8972Z" fill="url(#paint1_linear)"/>
</g>
</mask>
<g mask="url(#mask0)">
<line x1="17" y1="40.3" x2="317" y2="40.3" stroke="#E5E5E5"/>
<line x1="17" y1="45.1" x2="317" y2="45.1" stroke="#E5E5E5"/>
<line x1="17" y1="49.9" x2="317" y2="49.9" stroke="#E5E5E5"/>
<line x1="17" y1="54.7" x2="317" y2="54.7" stroke="#E5E5E5"/>
<line x1="17" y1="59.5" x2="317" y2="59.5" stroke="#E5E5E5"/>
<line x1="17" y1="64.3" x2="317" y2="64.3" stroke="#E5E5E5"/>
<line x1="17" y1="69.1" x2="317" y2="69.1" stroke="#E5E5E5"/>
<line x1="17" y1="73.9" x2="317" y2="73.9" stroke="#E5E5E5"/>
<line x1="17" y1="78.7" x2="317" y2="78.7" stroke="#E5E5E5"/>
<line x1="17" y1="83.5" x2="317" y2="83.5" stroke="#E5E5E5"/>
<line x1="17" y1="88.3" x2="317" y2="88.3" stroke="#E5E5E5"/>
<line x1="17" y1="93.1" x2="317" y2="93.1" stroke="#E5E5E5"/>
<line x1="17" y1="97.9" x2="317" y2="97.9" stroke="#E5E5E5"/>
<line x1="17" y1="102.7" x2="317" y2="102.7" stroke="#E5E5E5"/>
<line x1="17" y1="107.5" x2="317" y2="107.5" stroke="#E5E5E5"/>
<line x1="17" y1="112.3" x2="317" y2="112.3" stroke="#E5E5E5"/>
<line x1="17" y1="117.1" x2="317" y2="117.1" stroke="#E5E5E5"/>
<line x1="17" y1="78.7" x2="317" y2="78.7" stroke="#E5E5E5"/>
<line x1="17" y1="121.9" x2="317" y2="121.9" stroke="#E5E5E5"/>
<line x1="17" y1="126.7" x2="317" y2="126.7" stroke="#E5E5E5"/>
<line x1="17" y1="131.5" x2="317" y2="131.5" stroke="#E5E5E5"/>
<line x1="17" y1="121.9" x2="317" y2="121.9" stroke="#E5E5E5"/>
<line x1="17" y1="258.7" x2="317" y2="258.7" stroke="#E5E5E5"/>
<line x1="17" y1="136.3" x2="317" y2="136.3" stroke="#E5E5E5"/>
<line x1="17" y1="142.42" x2="317" y2="142.42" stroke="#E5E5E5"/>
<line x1="17" y1="148.54" x2="317" y2="148.54" stroke="#E5E5E5"/>
<line x1="17" y1="154.66" x2="317" y2="154.66" stroke="#E5E5E5"/>
<line x1="17" y1="160.78" x2="317" y2="160.78" stroke="#E5E5E5"/>
<line x1="17" y1="166.9" x2="317" y2="166.9" stroke="#E5E5E5"/>
<line x1="17" y1="173.02" x2="317" y2="173.02" stroke="#E5E5E5"/>
<line x1="17" y1="179.14" x2="317" y2="179.14" stroke="#E5E5E5"/>
<line x1="17" y1="185.26" x2="317" y2="185.26" stroke="#E5E5E5"/>
<line x1="17" y1="191.38" x2="317" y2="191.38" stroke="#E5E5E5"/>
<line x1="17" y1="197.5" x2="317" y2="197.5" stroke="#E5E5E5"/>
<line x1="17" y1="203.62" x2="317" y2="203.62" stroke="#E5E5E5"/>
<line x1="17" y1="209.74" x2="317" y2="209.74" stroke="#E5E5E5"/>
<line x1="17" y1="215.86" x2="317" y2="215.86" stroke="#E5E5E5"/>
<line x1="17" y1="221.98" x2="317" y2="221.98" stroke="#E5E5E5"/>
<line x1="17" y1="173.02" x2="317" y2="173.02" stroke="#E5E5E5"/>
<line x1="17" y1="228.1" x2="317" y2="228.1" stroke="#E5E5E5"/>
<line x1="17" y1="234.22" x2="317" y2="234.22" stroke="#E5E5E5"/>
<line x1="17" y1="240.34" x2="317" y2="240.34" stroke="#E5E5E5"/>
<line x1="17" y1="246.46" x2="317" y2="246.46" stroke="#E5E5E5"/>
<line x1="17" y1="252.58" x2="317" y2="252.58" stroke="#E5E5E5"/>
<line x1="17" y1="228.1" x2="317" y2="228.1" stroke="#E5E5E5"/>
<line x1="17" y1="258.7" x2="317" y2="258.7" stroke="#E5E5E5"/>
<line x1="17" y1="267.1" x2="317" y2="267.1" stroke="#E5E5E5"/>
<line x1="17" y1="275.5" x2="317" y2="275.5" stroke="#E5E5E5"/>
</g>
<path d="M189.642 166.2C185.242 166.2 181.509 164.667 178.442 161.6C175.376 158.533 173.842 154.8 173.842 150.4C173.842 146 175.376 142.267 178.442 139.2C181.509 136 185.242 134.4 189.642 134.4C194.042 134.4 197.776 136 200.842 139.2C204.042 142.267 205.642 146 205.642 150.4C205.642 154.8 204.042 158.533 200.842 161.6C197.776 164.667 194.042 166.2 189.642 166.2ZM176.042 278.2C169.642 278.2 164.442 276.2 160.442 272.2C156.576 268.2 154.642 262.2 154.642 254.2C154.642 250.867 155.176 246.533 156.242 241.2L169.842 177H198.642L184.242 245C183.709 247 183.442 249.133 183.442 251.4C183.442 254.067 184.042 256 185.242 257.2C186.576 258.267 188.709 258.8 191.642 258.8C195.509 258.8 199.109 257.2 202.442 254C205.776 250.667 208.176 246.4 209.642 241.2H218.042C213.109 255.6 206.776 265.4 199.042 270.6C191.309 275.667 183.642 278.2 176.042 278.2Z" fill="#E5E5E5"/>
<path d="M238.163 278.2C228.296 278.2 220.629 275.667 215.163 270.6C209.696 265.4 206.963 257.333 206.963 246.4C206.963 237.2 208.763 227.067 212.363 216C215.963 204.933 221.829 195.4 229.963 187.4C238.096 179.267 248.429 175.2 260.963 175.2C275.629 175.2 282.963 181.6 282.963 194.4C282.963 201.867 280.829 208.733 276.563 215C272.296 221.267 266.629 226.333 259.563 230.2C252.496 233.933 244.963 236.067 236.963 236.6C236.696 240.6 236.563 243.267 236.563 244.6C236.563 251.133 237.696 255.6 239.963 258C242.229 260.267 245.896 261.4 250.963 261.4C258.163 261.4 264.296 259.733 269.363 256.4C274.563 253.067 280.229 248 286.363 241.2H293.163C278.363 265.867 260.029 278.2 238.163 278.2ZM238.563 227C243.496 226.733 248.163 225 252.563 221.8C257.096 218.6 260.696 214.533 263.363 209.6C266.163 204.667 267.563 199.467 267.563 194C267.563 188.533 265.896 185.8 262.563 185.8C257.763 185.8 253.029 190 248.363 198.4C243.829 206.8 240.563 216.333 238.563 227Z" fill="#E5E5E5"/>
<path d="M306.12 278.2C299.72 278.2 294.52 276.2 290.52 272.2C286.654 268.2 284.72 262.2 284.72 254.2C284.72 250.867 285.254 246.533 286.32 241.2L307.72 141L337.32 137L314.32 245C313.787 247 313.52 249.133 313.52 251.4C313.52 254.067 314.12 256 315.32 257.2C316.654 258.267 318.787 258.8 321.72 258.8C325.587 258.8 329.187 257.2 332.52 254C335.854 250.667 338.254 246.4 339.72 241.2H348.12C343.187 255.6 336.854 265.4 329.12 270.6C321.387 275.667 313.72 278.2 306.12 278.2Z" fill="#E5E5E5"/>
<path d="M363.641 278.2C356.041 278.2 349.707 275.6 344.641 270.4C339.574 265.2 337.041 257.067 337.041 246C337.041 236.133 338.974 225.8 342.841 215C346.841 204.067 352.707 194.867 360.441 187.4C368.307 179.8 377.641 176 388.441 176C393.907 176 397.974 176.933 400.641 178.8C403.307 180.667 404.641 183.133 404.641 186.2V187L414.441 141L444.041 137L421.041 245C420.507 247 420.241 248.933 420.241 250.8C420.241 256.133 422.974 258.8 428.441 258.8C430.841 258.8 432.974 258.4 434.841 257.6C434.307 264.267 431.907 269.4 427.641 273C423.507 276.467 418.574 278.2 412.841 278.2C407.507 278.2 402.974 276.867 399.241 274.2C395.641 271.4 393.241 267.2 392.041 261.6C384.041 272.667 374.574 278.2 363.641 278.2ZM376.641 258.8C379.574 258.8 382.507 257.533 385.441 255C388.507 252.467 390.774 248.933 392.241 244.4L393.041 241.2L402.841 195.4C401.641 190.733 398.907 188.4 394.641 188.4C389.307 188.4 384.507 191.533 380.241 197.8C375.974 203.933 372.641 211.4 370.241 220.2C367.841 228.867 366.641 236.533 366.641 243.2C366.641 249.867 367.574 254.133 369.441 256C371.441 257.867 373.841 258.8 376.641 258.8Z" fill="#E5E5E5"/>
<path d="M189.642 166.2C185.242 166.2 181.509 164.667 178.442 161.6C175.375 158.533 173.842 154.8 173.842 150.4C173.842 146 175.375 142.267 178.442 139.2C181.509 136 185.242 134.4 189.642 134.4C194.042 134.4 197.775 136 200.842 139.2C204.042 142.267 205.642 146 205.642 150.4C205.642 154.8 204.042 158.533 200.842 161.6C197.775 164.667 194.042 166.2 189.642 166.2Z" fill="#FF0000"/>
<defs>
<linearGradient id="paint0_linear" x1="140" y1="83.5" x2="36" y2="304.5" gradientUnits="userSpaceOnUse">
<stop stop-color="#49E303"/>
<stop offset="1"/>
</linearGradient>
<linearGradient id="paint1_linear" x1="140" y1="83.5" x2="36" y2="304.5" gradientUnits="userSpaceOnUse">
<stop stop-color="#49E303"/>
<stop offset="1"/>
</linearGradient>
</defs>
</svg>
