<?xml version="1.0" standalone="no"?>
<!DOCTYPE svg PUBLIC "-//W3C//DTD SVG 20010904//EN"
 "http://www.w3.org/TR/2001/REC-SVG-20010904/DTD/svg10.dtd">
<svg version="1.0" xmlns="http://www.w3.org/2000/svg"
 width="700.000000pt" height="700.000000pt" viewBox="0 0 700.000000 700.000000"
 preserveAspectRatio="xMidYMid meet">
<metadata>
Created by potrace 1.11, written by Peter Selinger 2001-2013
</metadata>
<g transform="translate(0.000000,700.000000) scale(0.100000,-0.100000)"
fill="#000000" stroke="none">
<path d="M3469 5403 c-13 -16 -12 -17 4 -4 9 7 17 15 17 17 0 8 -8 3 -21 -13z"/>
<path d="M2148 5095 c-2 -2 -21 -6 -43 -9 -134 -21 -226 -95 -261 -210 -20
-64 -26 -227 -11 -296 4 -19 10 -46 12 -60 11 -66 134 -391 155 -410 3 -3 22
-39 43 -80 22 -41 47 -88 58 -105 10 -16 26 -43 35 -60 9 -16 32 -51 50 -78
19 -26 34 -49 34 -51 0 -8 124 -186 168 -241 4 -5 20 -26 35 -46 l27 -36 -63
-84 c-35 -46 -84 -114 -109 -151 -26 -36 -48 -65 -50 -62 -3 2 -5 -2 -5 -8 0
-7 -22 -47 -48 -88 -59 -90 -154 -258 -185 -328 -13 -28 -28 -48 -33 -45 -6 3
-7 1 -4 -4 9 -14 -57 -175 -68 -166 -4 5 -5 2 -1 -5 4 -7 -2 -43 -13 -80 -31
-100 -49 -205 -49 -287 0 -41 -3 -79 -8 -86 -4 -8 -3 -10 4 -5 8 5 12 -1 12
-16 1 -29 39 -116 65 -149 32 -39 87 -75 140 -94 57 -19 187 -27 260 -15 106
18 123 22 224 56 102 34 151 55 278 116 34 16 65 29 69 28 4 -1 10 2 13 7 3 5
33 24 66 43 141 78 305 186 473 311 l82 62 78 -59 c42 -32 79 -61 82 -64 3 -3
13 -9 22 -15 9 -5 63 -41 120 -80 57 -38 112 -74 123 -81 11 -6 45 -26 75 -44
88 -53 297 -155 396 -194 258 -102 483 -119 619 -49 73 38 140 129 153 207 9
53 8 198 -1 258 -19 119 -79 291 -157 450 -27 53 -46 99 -42 102 3 3 1 6 -5 6
-6 0 -22 24 -37 53 -45 87 -222 360 -282 434 -19 23 -34 44 -34 48 0 3 -9 16
-21 28 -41 44 -40 49 12 118 109 140 279 402 348 537 24 45 47 82 52 82 5 0 8
3 7 8 -4 10 43 122 51 122 4 0 7 9 8 20 1 10 8 34 16 52 63 143 91 273 91 418
0 110 -3 129 -30 190 -125 276 -562 234 -1156 -111 -92 -54 -340 -222 -414
-280 -34 -27 -67 -49 -74 -49 -7 0 -31 15 -54 33 -23 19 -63 49 -91 69 -195
135 -191 133 -291 193 -27 16 -51 32 -54 35 -13 14 -322 170 -337 170 -7 0
-13 4 -13 8 0 5 -6 9 -12 10 -7 0 -47 13 -88 28 -111 40 -216 64 -300 70 -41
3 -83 7 -92 8 -9 2 -18 2 -20 1z m175 -301 c116 -27 222 -68 376 -146 85 -43
157 -81 160 -86 3 -4 17 -13 31 -20 46 -22 287 -183 318 -212 12 -11 25 -20
30 -20 5 0 15 -7 22 -15 14 -17 18 -13 -111 -128 -82 -74 -298 -289 -375 -374
-125 -138 -144 -157 -147 -152 -78 105 -107 151 -101 160 4 7 3 9 -3 6 -8 -5
-93 102 -93 118 0 3 -17 31 -39 63 -44 66 -44 65 -136 248 -39 77 -83 176 -97
220 -23 70 -31 96 -45 154 -2 8 -6 49 -9 91 -8 97 0 107 92 107 36 0 94 -7
127 -14z m2568 -11 c33 -85 -30 -321 -147 -555 -91 -182 -278 -478 -351 -555
-6 -7 -14 -18 -16 -25 -4 -9 -18 1 -42 27 -20 22 -72 78 -115 125 -119 129
-330 335 -434 425 -31 26 -56 51 -56 54 0 15 294 218 415 287 278 157 497 238
658 242 76 2 78 2 88 -25z m-1306 -757 c129 -112 376 -356 497 -491 24 -27 58
-65 75 -84 l32 -35 -26 -30 c-99 -120 -375 -405 -507 -526 -82 -74 -149 -130
-157 -130 -13 0 -39 31 -34 40 3 4 -1 7 -8 6 -20 -2 -114 83 -316 284 -169
168 -318 332 -321 353 -3 23 333 378 503 530 39 36 94 86 122 111 27 24 54 42
60 38 5 -3 42 -33 80 -66z m-815 -991 c36 -38 128 -132 205 -209 77 -77 139
-144 137 -149 -1 -5 2 -6 6 -3 5 3 27 -11 49 -32 22 -20 56 -50 75 -67 l35
-30 -61 -45 c-138 -103 -294 -202 -307 -195 -8 5 -10 4 -5 -3 6 -11 -50 -48
-66 -44 -5 1 -8 -2 -8 -8 0 -10 -251 -134 -340 -168 -114 -43 -203 -64 -285
-65 -46 -1 -87 1 -91 5 -13 13 -13 133 0 189 7 30 13 56 13 59 0 7 23 82 33
105 4 11 16 40 25 65 36 97 136 288 228 434 31 49 161 242 167 246 3 3 16 20
29 38 l23 33 37 -43 c20 -23 65 -74 101 -113z m1662 68 c65 -89 160 -232 192
-288 10 -16 28 -48 40 -70 112 -193 182 -359 222 -520 2 -11 7 -54 10 -95 8
-98 -3 -113 -77 -114 -83 0 -170 14 -163 26 4 7 2 8 -5 4 -29 -18 -320 105
-507 215 -109 64 -268 169 -272 181 -2 4 -8 8 -14 8 -14 0 -128 89 -128 100 0
5 7 13 15 17 16 10 152 134 252 230 35 35 70 60 75 57 7 -4 8 -2 4 4 -8 14 78
104 89 94 4 -4 5 -2 3 4 -1 6 37 54 86 107 50 53 94 103 98 112 5 8 11 15 13
15 2 0 32 -39 67 -87z"/>
<path d="M5750 2896 c0 -2 8 -10 18 -17 15 -13 16 -12 3 4 -13 16 -21 21 -21
13z"/>
<path d="M5633 1245 c0 -8 4 -12 9 -9 5 3 6 10 3 15 -9 13 -12 11 -12 -6z"/>
</g>
</svg>
