<svg width="40" height="40" viewBox="0 0 40 40" fill="none" xmlns="http://www.w3.org/2000/svg">
<rect width="40" height="40" rx="20" fill="#009E83" fill-opacity="0.08"/>
<path d="M29.0553 11.444C27.6687 10.0565 23.9601 11.4111 20.0001 14.503C16.0391 11.4111 12.3304 10.0575 10.9449 11.444C9.55643 12.8314 10.9121 16.5392 14.003 20.5001C10.912 24.4611 9.55648 28.1698 10.9449 29.5563C12.3314 30.9438 16.041 29.5882 20.001 26.4972C23.961 29.5892 27.6698 30.9437 29.0562 29.5563C30.4437 28.1688 29.0881 24.4601 25.9962 20.5001C29.0891 16.5392 30.4437 12.8314 29.0553 11.444ZM27.4915 12.4986C27.785 12.4986 27.9087 12.5596 27.9247 12.5755C28.0053 12.6561 28.2134 13.5636 27.2112 15.6523C26.6675 16.7858 25.8978 18.0008 24.9603 19.2307C24.4072 18.5913 23.8137 17.952 23.1809 17.3192C22.549 16.6882 21.9096 16.0938 21.2712 15.5417C23.9064 13.5382 26.2222 12.4985 27.4915 12.4985V12.4986ZM23.9367 20.4993C23.3507 21.1874 22.7226 21.8755 22.0485 22.5496C21.3613 23.2377 20.6751 23.8649 20.001 24.4368C19.3129 23.8518 18.6248 23.2237 17.9517 22.5496C17.2635 21.8615 16.6363 21.1752 16.0635 20.5021C16.6485 19.813 17.2767 19.1259 17.9498 18.4527C18.6388 17.7646 19.3251 17.1365 19.9982 16.5646C20.6873 17.1505 21.3754 17.7787 22.0486 18.4527C22.7376 19.1399 23.3648 19.8252 23.9367 20.4993H23.9367ZM11.9995 13.0086C11.9995 12.7161 12.0605 12.5914 12.0755 12.5755C12.1552 12.4958 13.0636 12.2868 15.1523 13.2899C16.2857 13.8336 17.4998 14.6033 18.7307 15.5399C18.0913 16.093 17.451 16.6864 16.8182 17.3193C16.1863 17.9512 15.5928 18.5905 15.0416 19.229C13.0382 16.5938 11.9994 14.277 11.9994 13.0086H11.9995ZM12.5086 28.5018C12.2151 28.5018 12.0905 28.44 12.0755 28.4259C11.9948 28.3453 11.7867 27.4378 12.7899 25.3491C13.3336 24.2166 14.1024 23.0016 15.0399 21.7707C15.593 22.4101 16.1864 23.0494 16.8192 23.6832C17.4511 24.316 18.0896 24.9085 18.7289 25.4607C16.0937 27.4623 13.777 28.502 12.5086 28.502V28.5018ZM28.0018 27.9918C28.0018 28.2843 27.9399 28.409 27.9249 28.424C27.8443 28.5047 26.9368 28.7137 24.8481 27.7106C23.7156 27.1668 22.5006 26.3971 21.2707 25.4596C21.9091 24.9065 22.5494 24.3131 23.1813 23.6812C23.8141 23.0493 24.4076 22.4099 24.9597 21.7706C26.9623 24.4067 28.002 26.7225 28.002 27.9919L28.0018 27.9918Z" fill="black"/>
</svg>
