<svg width="652" height="210" viewBox="0 0 652 210" fill="none" xmlns="http://www.w3.org/2000/svg">
<path d="M56 82.0331V144.009H44V72.0127C44 66.2391 50.5959 62.948 55.2091 66.4196L112.209 109.314C113.966 110.637 115 112.708 115 114.908V144.009H103V117.403L56 82.0331Z" fill="white"/>
<path d="M249.528 76.0087C244.818 76.0087 241 79.8268 241 84.5368V138.455H252.074V91.7411L267.004 116.105C268.704 118.878 271.723 120.569 274.977 120.569C278.222 120.569 281.236 118.886 282.938 116.122L297.953 91.7411V138.455H309.027V84.1407C309.027 79.6495 305.387 76.0087 300.895 76.0087C298.011 76.0087 295.342 77.5365 293.882 80.024L275.189 111.868L256.91 80.2668C255.386 77.6315 252.572 76.0087 249.528 76.0087Z" fill="white"/>
<path fill-rule="evenodd" clip-rule="evenodd" d="M360.172 76.0087C356.513 76.0087 353.225 78.2429 351.877 81.6449L329.369 138.455H340.091L347.079 122.107H372.567L379.554 138.455H390.936L368.47 81.6499C367.123 78.2453 363.834 76.0087 360.172 76.0087ZM359.823 88.7968L368.7 111.956H350.902L359.823 88.7968Z" fill="white"/>
<path d="M420.902 104.617L447.911 77.4821C448.85 76.5389 450.126 76.0087 451.457 76.0087C455.919 76.0087 458.149 81.4083 454.987 84.5566L433.558 105.891L465.154 138.455H450.784L420.902 108.221V138.455H409.827V81.5458C409.827 78.4877 412.306 76.0087 415.364 76.0087C418.423 76.0087 420.902 78.4877 420.902 81.5458V104.617Z" fill="white"/>
<path d="M484.749 128.455C484.749 133.978 489.226 138.455 494.749 138.455H523.465C526.28 138.455 528.562 136.173 528.562 133.357C528.562 130.542 526.28 128.26 523.465 128.26H495.867V111.385H521.048C523.863 111.385 526.145 109.102 526.145 106.287C526.145 103.472 523.863 101.189 521.048 101.189H495.867V86.204H523.465C526.28 86.204 528.562 83.9217 528.562 81.1063C528.562 78.291 526.28 76.0087 523.465 76.0087H494.749C489.226 76.0087 484.749 80.4858 484.749 86.0087V128.455Z" fill="white"/>
<path fill-rule="evenodd" clip-rule="evenodd" d="M602.165 93.8944C602.165 95.8866 601.916 97.7909 601.418 99.6073C600.95 101.394 600.188 103.123 599.133 104.793C598.108 106.463 596.687 107.957 594.87 109.275C593.083 110.594 590.959 111.619 588.498 112.351L607.351 138.455H592.937L575.447 114.241H564.856V138.455H553.782V86.0087C553.782 80.4858 558.259 76.0087 563.782 76.0087H580.369C581.687 76.0087 582.888 76.0526 583.972 76.1405C585.085 76.1991 586.418 76.3749 587.971 76.6678C589.553 76.9315 590.945 77.2977 592.146 77.7665C593.376 78.2352 594.636 78.9237 595.925 79.8319C597.244 80.7401 598.328 81.8094 599.177 83.0399C600.056 84.2411 600.774 85.7792 601.33 87.6542C601.887 89.4999 602.165 91.58 602.165 93.8944ZM564.856 86.16V104.046H575.051C576.809 104.046 578.362 103.987 579.709 103.87C581.057 103.753 582.449 103.518 583.884 103.167C585.32 102.786 586.492 102.273 587.4 101.629C588.337 100.984 589.099 100.091 589.685 98.9481C590.3 97.8055 590.608 96.4579 590.608 94.9052C590.608 89.0751 586.111 86.16 577.117 86.16H564.856Z" fill="white"/>
<path d="M183 144.009V82.0331L136 117.403V144.009H124V114.908C124 112.708 125.034 110.637 126.791 109.314L183.791 66.4196C188.404 62.948 195 66.2391 195 72.0127V144.009H183Z" fill="white"/>
</svg>
